<mxfile host="app.diagrams.net" modified="2024-05-05T16:44:13.896Z" agent="Mozilla/5.0 (Windows NT 10.0; Win64; x64) AppleWebKit/537.36 (KHTML, like Gecko) Chrome/124.0.0.0 Safari/537.36" etag="oAVPQ3z0HwyYBfsj8z_O" version="24.2.1" type="device">
  <diagram name="Страница — 1" id="mpOEjopdROtSCYujS84G">
    <mxGraphModel dx="6563" dy="4153" grid="1" gridSize="10" guides="1" tooltips="1" connect="1" arrows="1" fold="1" page="1" pageScale="1" pageWidth="827" pageHeight="1169" math="0" shadow="0">
      <root>
        <mxCell id="0" />
        <mxCell id="1" parent="0" />
        <mxCell id="-u59lbDl4Qi8jjfzpeMI-1" value="X=MAX_CPU=8 (для примера)&lt;div&gt;N=количество воркеров в сервисе&lt;/div&gt;&lt;div&gt;стек: FastApi, Kafka/RabbitMQ, Multiprocessing, mysql/sqlite/postgres&lt;/div&gt;" style="text;html=1;align=left;verticalAlign=middle;whiteSpace=wrap;rounded=0;fontSize=20;" vertex="1" parent="1">
          <mxGeometry x="-130" y="-190" width="820" height="100" as="geometry" />
        </mxCell>
        <mxCell id="-u59lbDl4Qi8jjfzpeMI-3" value="FASTAPI" style="swimlane;whiteSpace=wrap;html=1;" vertex="1" parent="1">
          <mxGeometry x="60" y="150" width="200" height="200" as="geometry" />
        </mxCell>
        <mxCell id="-u59lbDl4Qi8jjfzpeMI-26" style="edgeStyle=orthogonalEdgeStyle;rounded=0;orthogonalLoop=1;jettySize=auto;html=1;exitX=1;exitY=0.25;exitDx=0;exitDy=0;fillColor=#d5e8d4;strokeColor=#82b366;strokeWidth=3;" edge="1" parent="-u59lbDl4Qi8jjfzpeMI-3" source="-u59lbDl4Qi8jjfzpeMI-22">
          <mxGeometry relative="1" as="geometry">
            <mxPoint x="300" y="75" as="targetPoint" />
          </mxGeometry>
        </mxCell>
        <mxCell id="-u59lbDl4Qi8jjfzpeMI-22" value="роутинг" style="rounded=0;whiteSpace=wrap;html=1;" vertex="1" parent="-u59lbDl4Qi8jjfzpeMI-3">
          <mxGeometry x="30" y="40" width="130" height="140" as="geometry" />
        </mxCell>
        <mxCell id="-u59lbDl4Qi8jjfzpeMI-4" value="KAFKA / RABBITMQ" style="swimlane;whiteSpace=wrap;html=1;" vertex="1" parent="1">
          <mxGeometry x="330" y="150" width="200" height="200" as="geometry" />
        </mxCell>
        <mxCell id="-u59lbDl4Qi8jjfzpeMI-28" value="прием сообщений" style="rounded=0;whiteSpace=wrap;html=1;" vertex="1" parent="-u59lbDl4Qi8jjfzpeMI-4">
          <mxGeometry x="30" y="120" width="140" height="60" as="geometry" />
        </mxCell>
        <mxCell id="-u59lbDl4Qi8jjfzpeMI-5" value="загрузка" style="swimlane;whiteSpace=wrap;html=1;fillColor=#e1d5e7;strokeColor=#9673a6;" vertex="1" parent="1">
          <mxGeometry x="770" y="255" width="320" height="280" as="geometry" />
        </mxCell>
        <mxCell id="-u59lbDl4Qi8jjfzpeMI-36" style="edgeStyle=orthogonalEdgeStyle;rounded=0;orthogonalLoop=1;jettySize=auto;html=1;entryX=0.5;entryY=1;entryDx=0;entryDy=0;exitX=0.5;exitY=1;exitDx=0;exitDy=0;fillColor=#d5e8d4;strokeColor=#82b366;strokeWidth=3;" edge="1" parent="-u59lbDl4Qi8jjfzpeMI-5" source="-u59lbDl4Qi8jjfzpeMI-29" target="-u59lbDl4Qi8jjfzpeMI-30">
          <mxGeometry relative="1" as="geometry" />
        </mxCell>
        <mxCell id="-u59lbDl4Qi8jjfzpeMI-37" style="edgeStyle=orthogonalEdgeStyle;rounded=0;orthogonalLoop=1;jettySize=auto;html=1;entryX=0.5;entryY=1;entryDx=0;entryDy=0;exitX=0.5;exitY=1;exitDx=0;exitDy=0;fillColor=#d5e8d4;strokeColor=#82b366;strokeWidth=3;" edge="1" parent="-u59lbDl4Qi8jjfzpeMI-5" source="-u59lbDl4Qi8jjfzpeMI-29" target="-u59lbDl4Qi8jjfzpeMI-31">
          <mxGeometry relative="1" as="geometry" />
        </mxCell>
        <mxCell id="-u59lbDl4Qi8jjfzpeMI-29" value="контроллер (родительский процесс)" style="rounded=0;whiteSpace=wrap;html=1;fillColor=#fff2cc;strokeColor=#d6b656;" vertex="1" parent="-u59lbDl4Qi8jjfzpeMI-5">
          <mxGeometry x="20" y="65" width="80" height="140" as="geometry" />
        </mxCell>
        <mxCell id="-u59lbDl4Qi8jjfzpeMI-30" value="воркер для обработки" style="rounded=0;whiteSpace=wrap;html=1;" vertex="1" parent="-u59lbDl4Qi8jjfzpeMI-5">
          <mxGeometry x="120" y="65" width="80" height="140" as="geometry" />
        </mxCell>
        <mxCell id="-u59lbDl4Qi8jjfzpeMI-31" value="воркер для обработки" style="rounded=0;whiteSpace=wrap;html=1;" vertex="1" parent="-u59lbDl4Qi8jjfzpeMI-5">
          <mxGeometry x="220" y="65" width="80" height="140" as="geometry" />
        </mxCell>
        <mxCell id="-u59lbDl4Qi8jjfzpeMI-32" value="" style="shape=curlyBracket;whiteSpace=wrap;html=1;rounded=1;labelPosition=left;verticalLabelPosition=middle;align=right;verticalAlign=middle;rotation=90;" vertex="1" parent="-u59lbDl4Qi8jjfzpeMI-5">
          <mxGeometry x="200" y="-35" width="20" height="180" as="geometry" />
        </mxCell>
        <mxCell id="-u59lbDl4Qi8jjfzpeMI-33" value="N=(X-2) / 2 - 1" style="text;html=1;align=center;verticalAlign=middle;whiteSpace=wrap;rounded=0;" vertex="1" parent="-u59lbDl4Qi8jjfzpeMI-5">
          <mxGeometry x="160" y="25" width="100" height="30" as="geometry" />
        </mxCell>
        <mxCell id="-u59lbDl4Qi8jjfzpeMI-6" value="обработка" style="swimlane;whiteSpace=wrap;html=1;fillColor=#dae8fc;strokeColor=#6c8ebf;" vertex="1" parent="1">
          <mxGeometry x="770" y="-35" width="320" height="280" as="geometry" />
        </mxCell>
        <mxCell id="-u59lbDl4Qi8jjfzpeMI-34" style="edgeStyle=orthogonalEdgeStyle;rounded=0;orthogonalLoop=1;jettySize=auto;html=1;entryX=0.5;entryY=1;entryDx=0;entryDy=0;exitX=0.5;exitY=1;exitDx=0;exitDy=0;fillColor=#f8cecc;strokeColor=#b85450;strokeWidth=3;" edge="1" parent="-u59lbDl4Qi8jjfzpeMI-6" source="-u59lbDl4Qi8jjfzpeMI-7" target="-u59lbDl4Qi8jjfzpeMI-8">
          <mxGeometry relative="1" as="geometry" />
        </mxCell>
        <mxCell id="-u59lbDl4Qi8jjfzpeMI-35" style="edgeStyle=orthogonalEdgeStyle;rounded=0;orthogonalLoop=1;jettySize=auto;html=1;entryX=0.5;entryY=1;entryDx=0;entryDy=0;exitX=0.5;exitY=1;exitDx=0;exitDy=0;fillColor=#f8cecc;strokeColor=#b85450;strokeWidth=3;" edge="1" parent="-u59lbDl4Qi8jjfzpeMI-6" source="-u59lbDl4Qi8jjfzpeMI-7" target="-u59lbDl4Qi8jjfzpeMI-9">
          <mxGeometry relative="1" as="geometry" />
        </mxCell>
        <mxCell id="-u59lbDl4Qi8jjfzpeMI-7" value="контроллер (родительский процесс)" style="rounded=0;whiteSpace=wrap;html=1;fillColor=#fff2cc;strokeColor=#d6b656;" vertex="1" parent="-u59lbDl4Qi8jjfzpeMI-6">
          <mxGeometry x="20" y="65" width="80" height="140" as="geometry" />
        </mxCell>
        <mxCell id="-u59lbDl4Qi8jjfzpeMI-8" value="воркер для обработки" style="rounded=0;whiteSpace=wrap;html=1;" vertex="1" parent="-u59lbDl4Qi8jjfzpeMI-6">
          <mxGeometry x="120" y="65" width="80" height="140" as="geometry" />
        </mxCell>
        <mxCell id="-u59lbDl4Qi8jjfzpeMI-9" value="воркер для обработки" style="rounded=0;whiteSpace=wrap;html=1;" vertex="1" parent="-u59lbDl4Qi8jjfzpeMI-6">
          <mxGeometry x="220" y="65" width="80" height="140" as="geometry" />
        </mxCell>
        <mxCell id="-u59lbDl4Qi8jjfzpeMI-14" value="" style="shape=curlyBracket;whiteSpace=wrap;html=1;rounded=1;labelPosition=left;verticalLabelPosition=middle;align=right;verticalAlign=middle;rotation=90;" vertex="1" parent="-u59lbDl4Qi8jjfzpeMI-6">
          <mxGeometry x="200" y="-35" width="20" height="180" as="geometry" />
        </mxCell>
        <mxCell id="-u59lbDl4Qi8jjfzpeMI-16" value="N=(X-2) / 2 - 1" style="text;html=1;align=center;verticalAlign=middle;whiteSpace=wrap;rounded=0;" vertex="1" parent="-u59lbDl4Qi8jjfzpeMI-6">
          <mxGeometry x="160" y="25" width="100" height="30" as="geometry" />
        </mxCell>
        <mxCell id="-u59lbDl4Qi8jjfzpeMI-18" value="загрузка" style="shape=umlActor;verticalLabelPosition=bottom;verticalAlign=top;html=1;outlineConnect=0;fillColor=#d5e8d4;strokeColor=#82b366;" vertex="1" parent="1">
          <mxGeometry x="-60" y="150" width="30" height="60" as="geometry" />
        </mxCell>
        <mxCell id="-u59lbDl4Qi8jjfzpeMI-19" value="обработка" style="shape=umlActor;verticalLabelPosition=bottom;verticalAlign=top;html=1;outlineConnect=0;fillColor=#f8cecc;strokeColor=#b85450;" vertex="1" parent="1">
          <mxGeometry x="-60" y="280" width="30" height="60" as="geometry" />
        </mxCell>
        <mxCell id="-u59lbDl4Qi8jjfzpeMI-38" style="edgeStyle=orthogonalEdgeStyle;rounded=0;orthogonalLoop=1;jettySize=auto;html=1;entryX=0.013;entryY=0.186;entryDx=0;entryDy=0;fillColor=#f8cecc;strokeColor=#b85450;exitX=1;exitY=0.25;exitDx=0;exitDy=0;entryPerimeter=0;strokeWidth=3;" edge="1" parent="1" source="-u59lbDl4Qi8jjfzpeMI-27" target="-u59lbDl4Qi8jjfzpeMI-7">
          <mxGeometry relative="1" as="geometry" />
        </mxCell>
        <mxCell id="-u59lbDl4Qi8jjfzpeMI-39" style="edgeStyle=orthogonalEdgeStyle;rounded=0;orthogonalLoop=1;jettySize=auto;html=1;entryX=-0.012;entryY=0.207;entryDx=0;entryDy=0;fillColor=#d5e8d4;strokeColor=#82b366;exitX=1;exitY=0.617;exitDx=0;exitDy=0;exitPerimeter=0;entryPerimeter=0;strokeWidth=3;" edge="1" parent="1" source="-u59lbDl4Qi8jjfzpeMI-27" target="-u59lbDl4Qi8jjfzpeMI-29">
          <mxGeometry relative="1" as="geometry">
            <Array as="points">
              <mxPoint x="650" y="227" />
              <mxPoint x="650" y="349" />
            </Array>
          </mxGeometry>
        </mxCell>
        <mxCell id="-u59lbDl4Qi8jjfzpeMI-27" value="посылка сообщений" style="rounded=0;whiteSpace=wrap;html=1;" vertex="1" parent="1">
          <mxGeometry x="360" y="190" width="140" height="60" as="geometry" />
        </mxCell>
        <mxCell id="-u59lbDl4Qi8jjfzpeMI-25" style="edgeStyle=orthogonalEdgeStyle;rounded=0;orthogonalLoop=1;jettySize=auto;html=1;exitX=0.992;exitY=0.329;exitDx=0;exitDy=0;exitPerimeter=0;fillColor=#f8cecc;strokeColor=#b85450;entryX=0;entryY=0.75;entryDx=0;entryDy=0;strokeWidth=3;" edge="1" parent="1" source="-u59lbDl4Qi8jjfzpeMI-22" target="-u59lbDl4Qi8jjfzpeMI-27">
          <mxGeometry relative="1" as="geometry">
            <mxPoint x="360" y="310" as="targetPoint" />
            <Array as="points">
              <mxPoint x="223" y="236" />
              <mxPoint x="223" y="235" />
            </Array>
          </mxGeometry>
        </mxCell>
        <mxCell id="-u59lbDl4Qi8jjfzpeMI-40" value="после выполнения" style="edgeStyle=orthogonalEdgeStyle;rounded=0;orthogonalLoop=1;jettySize=auto;html=1;entryX=1;entryY=0.75;entryDx=0;entryDy=0;fillColor=#6d8764;strokeColor=#3A5431;strokeWidth=3;" edge="1" parent="1" source="-u59lbDl4Qi8jjfzpeMI-29" target="-u59lbDl4Qi8jjfzpeMI-28">
          <mxGeometry relative="1" as="geometry">
            <Array as="points">
              <mxPoint x="520" y="430" />
              <mxPoint x="520" y="315" />
            </Array>
          </mxGeometry>
        </mxCell>
        <mxCell id="-u59lbDl4Qi8jjfzpeMI-41" value="после выполнения" style="edgeStyle=orthogonalEdgeStyle;rounded=0;orthogonalLoop=1;jettySize=auto;html=1;entryX=1;entryY=0.25;entryDx=0;entryDy=0;fillColor=#a0522d;strokeColor=#6D1F00;strokeWidth=3;" edge="1" parent="1" source="-u59lbDl4Qi8jjfzpeMI-7" target="-u59lbDl4Qi8jjfzpeMI-28">
          <mxGeometry x="0.3431" relative="1" as="geometry">
            <Array as="points">
              <mxPoint x="750" y="100" />
              <mxPoint x="750" y="390" />
              <mxPoint x="550" y="390" />
              <mxPoint x="550" y="285" />
            </Array>
            <mxPoint as="offset" />
          </mxGeometry>
        </mxCell>
        <mxCell id="-u59lbDl4Qi8jjfzpeMI-44" value="после&lt;div&gt;выполнения&lt;/div&gt;" style="edgeStyle=orthogonalEdgeStyle;rounded=0;orthogonalLoop=1;jettySize=auto;html=1;entryX=1.046;entryY=0.957;entryDx=0;entryDy=0;entryPerimeter=0;exitX=-0.007;exitY=0.9;exitDx=0;exitDy=0;exitPerimeter=0;fillColor=#a0522d;strokeColor=#6D1F00;strokeWidth=3;" edge="1" parent="1" source="-u59lbDl4Qi8jjfzpeMI-28" target="-u59lbDl4Qi8jjfzpeMI-22">
          <mxGeometry relative="1" as="geometry">
            <Array as="points">
              <mxPoint x="350" y="324" />
              <mxPoint x="350" y="324" />
            </Array>
          </mxGeometry>
        </mxCell>
        <mxCell id="-u59lbDl4Qi8jjfzpeMI-45" value="после&lt;div&gt;выполнения&lt;/div&gt;" style="edgeStyle=orthogonalEdgeStyle;rounded=0;orthogonalLoop=1;jettySize=auto;html=1;exitX=0;exitY=0.25;exitDx=0;exitDy=0;fillColor=#6d8764;strokeColor=#3A5431;strokeWidth=3;" edge="1" parent="1" source="-u59lbDl4Qi8jjfzpeMI-28">
          <mxGeometry relative="1" as="geometry">
            <mxPoint x="220" y="285" as="targetPoint" />
            <Array as="points">
              <mxPoint x="224" y="285" />
            </Array>
          </mxGeometry>
        </mxCell>
        <mxCell id="-u59lbDl4Qi8jjfzpeMI-46" value="" style="endArrow=classic;startArrow=classic;html=1;rounded=0;entryX=0;entryY=0.25;entryDx=0;entryDy=0;fillColor=#d5e8d4;strokeColor=#82b366;strokeWidth=3;" edge="1" parent="1" source="-u59lbDl4Qi8jjfzpeMI-18" target="-u59lbDl4Qi8jjfzpeMI-22">
          <mxGeometry width="50" height="50" relative="1" as="geometry">
            <mxPoint x="460" y="330" as="sourcePoint" />
            <mxPoint x="510" y="280" as="targetPoint" />
          </mxGeometry>
        </mxCell>
        <mxCell id="-u59lbDl4Qi8jjfzpeMI-47" value="" style="endArrow=classic;startArrow=classic;html=1;rounded=0;entryX=0;entryY=0.45;entryDx=0;entryDy=0;entryPerimeter=0;fillColor=#f8cecc;strokeColor=#b85450;strokeWidth=3;" edge="1" parent="1" source="-u59lbDl4Qi8jjfzpeMI-19" target="-u59lbDl4Qi8jjfzpeMI-22">
          <mxGeometry width="50" height="50" relative="1" as="geometry">
            <mxPoint x="-20" y="195" as="sourcePoint" />
            <mxPoint x="100" y="235" as="targetPoint" />
          </mxGeometry>
        </mxCell>
        <mxCell id="-u59lbDl4Qi8jjfzpeMI-48" value="FASTAPI" style="swimlane;whiteSpace=wrap;html=1;" vertex="1" parent="1">
          <mxGeometry x="-10" y="975" width="200" height="200" as="geometry" />
        </mxCell>
        <mxCell id="-u59lbDl4Qi8jjfzpeMI-49" style="edgeStyle=orthogonalEdgeStyle;rounded=0;orthogonalLoop=1;jettySize=auto;html=1;exitX=1;exitY=0.25;exitDx=0;exitDy=0;fillColor=#d5e8d4;strokeColor=#82b366;strokeWidth=3;" edge="1" parent="-u59lbDl4Qi8jjfzpeMI-48" source="-u59lbDl4Qi8jjfzpeMI-50">
          <mxGeometry relative="1" as="geometry">
            <mxPoint x="300" y="75" as="targetPoint" />
          </mxGeometry>
        </mxCell>
        <mxCell id="-u59lbDl4Qi8jjfzpeMI-50" value="роутинг" style="rounded=0;whiteSpace=wrap;html=1;" vertex="1" parent="-u59lbDl4Qi8jjfzpeMI-48">
          <mxGeometry x="30" y="40" width="130" height="140" as="geometry" />
        </mxCell>
        <mxCell id="-u59lbDl4Qi8jjfzpeMI-51" value="KAFKA / RABBITMQ" style="swimlane;whiteSpace=wrap;html=1;" vertex="1" parent="1">
          <mxGeometry x="260" y="975" width="200" height="200" as="geometry" />
        </mxCell>
        <mxCell id="-u59lbDl4Qi8jjfzpeMI-52" value="прием сообщений" style="rounded=0;whiteSpace=wrap;html=1;" vertex="1" parent="-u59lbDl4Qi8jjfzpeMI-51">
          <mxGeometry x="30" y="120" width="140" height="60" as="geometry" />
        </mxCell>
        <mxCell id="-u59lbDl4Qi8jjfzpeMI-53" value="загрузка" style="swimlane;whiteSpace=wrap;html=1;fillColor=#e1d5e7;strokeColor=#9673a6;" vertex="1" parent="1">
          <mxGeometry x="840" y="1450" width="320" height="240" as="geometry" />
        </mxCell>
        <mxCell id="-u59lbDl4Qi8jjfzpeMI-54" style="edgeStyle=orthogonalEdgeStyle;rounded=0;orthogonalLoop=1;jettySize=auto;html=1;entryX=0.5;entryY=1;entryDx=0;entryDy=0;exitX=0.5;exitY=1;exitDx=0;exitDy=0;fillColor=#d5e8d4;strokeColor=#82b366;strokeWidth=3;" edge="1" parent="-u59lbDl4Qi8jjfzpeMI-53" source="-u59lbDl4Qi8jjfzpeMI-56" target="-u59lbDl4Qi8jjfzpeMI-57">
          <mxGeometry relative="1" as="geometry" />
        </mxCell>
        <mxCell id="-u59lbDl4Qi8jjfzpeMI-55" style="edgeStyle=orthogonalEdgeStyle;rounded=0;orthogonalLoop=1;jettySize=auto;html=1;entryX=0.5;entryY=1;entryDx=0;entryDy=0;exitX=0.5;exitY=1;exitDx=0;exitDy=0;fillColor=#d5e8d4;strokeColor=#82b366;strokeWidth=3;" edge="1" parent="-u59lbDl4Qi8jjfzpeMI-53" source="-u59lbDl4Qi8jjfzpeMI-56" target="-u59lbDl4Qi8jjfzpeMI-58">
          <mxGeometry relative="1" as="geometry" />
        </mxCell>
        <mxCell id="-u59lbDl4Qi8jjfzpeMI-149" style="edgeStyle=orthogonalEdgeStyle;rounded=0;orthogonalLoop=1;jettySize=auto;html=1;exitX=0;exitY=0;exitDx=0;exitDy=0;fillColor=#6d8764;strokeColor=#3A5431;strokeWidth=3;" edge="1" parent="-u59lbDl4Qi8jjfzpeMI-53" source="-u59lbDl4Qi8jjfzpeMI-56">
          <mxGeometry relative="1" as="geometry">
            <mxPoint x="20" y="-149.99999999999955" as="targetPoint" />
          </mxGeometry>
        </mxCell>
        <mxCell id="-u59lbDl4Qi8jjfzpeMI-56" value="контроллер (родительский процесс)" style="rounded=0;whiteSpace=wrap;html=1;fillColor=#fff2cc;strokeColor=#d6b656;" vertex="1" parent="-u59lbDl4Qi8jjfzpeMI-53">
          <mxGeometry x="20" y="65" width="80" height="140" as="geometry" />
        </mxCell>
        <mxCell id="-u59lbDl4Qi8jjfzpeMI-57" value="воркер для обработки" style="rounded=0;whiteSpace=wrap;html=1;" vertex="1" parent="-u59lbDl4Qi8jjfzpeMI-53">
          <mxGeometry x="120" y="65" width="80" height="140" as="geometry" />
        </mxCell>
        <mxCell id="-u59lbDl4Qi8jjfzpeMI-58" value="воркер для обработки" style="rounded=0;whiteSpace=wrap;html=1;" vertex="1" parent="-u59lbDl4Qi8jjfzpeMI-53">
          <mxGeometry x="220" y="65" width="80" height="140" as="geometry" />
        </mxCell>
        <mxCell id="-u59lbDl4Qi8jjfzpeMI-59" value="" style="shape=curlyBracket;whiteSpace=wrap;html=1;rounded=1;labelPosition=left;verticalLabelPosition=middle;align=right;verticalAlign=middle;rotation=90;" vertex="1" parent="-u59lbDl4Qi8jjfzpeMI-53">
          <mxGeometry x="200" y="-35" width="20" height="180" as="geometry" />
        </mxCell>
        <mxCell id="-u59lbDl4Qi8jjfzpeMI-60" value="N=8-2" style="text;html=1;align=center;verticalAlign=middle;whiteSpace=wrap;rounded=0;" vertex="1" parent="-u59lbDl4Qi8jjfzpeMI-53">
          <mxGeometry x="160" y="25" width="100" height="30" as="geometry" />
        </mxCell>
        <mxCell id="-u59lbDl4Qi8jjfzpeMI-61" value="обработка" style="swimlane;whiteSpace=wrap;html=1;fillColor=#dae8fc;strokeColor=#6c8ebf;" vertex="1" parent="1">
          <mxGeometry x="840" y="790" width="320" height="280" as="geometry" />
        </mxCell>
        <mxCell id="-u59lbDl4Qi8jjfzpeMI-62" style="edgeStyle=orthogonalEdgeStyle;rounded=0;orthogonalLoop=1;jettySize=auto;html=1;entryX=0.5;entryY=1;entryDx=0;entryDy=0;exitX=0.5;exitY=1;exitDx=0;exitDy=0;fillColor=#f8cecc;strokeColor=#b85450;strokeWidth=3;" edge="1" parent="-u59lbDl4Qi8jjfzpeMI-61" source="-u59lbDl4Qi8jjfzpeMI-64" target="-u59lbDl4Qi8jjfzpeMI-65">
          <mxGeometry relative="1" as="geometry" />
        </mxCell>
        <mxCell id="-u59lbDl4Qi8jjfzpeMI-63" style="edgeStyle=orthogonalEdgeStyle;rounded=0;orthogonalLoop=1;jettySize=auto;html=1;entryX=0.5;entryY=1;entryDx=0;entryDy=0;exitX=0.5;exitY=1;exitDx=0;exitDy=0;fillColor=#f8cecc;strokeColor=#b85450;strokeWidth=3;" edge="1" parent="-u59lbDl4Qi8jjfzpeMI-61" source="-u59lbDl4Qi8jjfzpeMI-64" target="-u59lbDl4Qi8jjfzpeMI-66">
          <mxGeometry relative="1" as="geometry" />
        </mxCell>
        <mxCell id="-u59lbDl4Qi8jjfzpeMI-148" style="edgeStyle=orthogonalEdgeStyle;rounded=0;orthogonalLoop=1;jettySize=auto;html=1;exitX=0.25;exitY=1;exitDx=0;exitDy=0;fillColor=#a0522d;strokeColor=#6D1F00;strokeWidth=3;" edge="1" parent="-u59lbDl4Qi8jjfzpeMI-61" source="-u59lbDl4Qi8jjfzpeMI-64">
          <mxGeometry relative="1" as="geometry">
            <mxPoint x="40" y="500.00000000000045" as="targetPoint" />
          </mxGeometry>
        </mxCell>
        <mxCell id="-u59lbDl4Qi8jjfzpeMI-64" value="контроллер (родительский процесс)" style="rounded=0;whiteSpace=wrap;html=1;fillColor=#fff2cc;strokeColor=#d6b656;" vertex="1" parent="-u59lbDl4Qi8jjfzpeMI-61">
          <mxGeometry x="20" y="65" width="80" height="140" as="geometry" />
        </mxCell>
        <mxCell id="-u59lbDl4Qi8jjfzpeMI-65" value="воркер для обработки" style="rounded=0;whiteSpace=wrap;html=1;" vertex="1" parent="-u59lbDl4Qi8jjfzpeMI-61">
          <mxGeometry x="120" y="65" width="80" height="140" as="geometry" />
        </mxCell>
        <mxCell id="-u59lbDl4Qi8jjfzpeMI-66" value="воркер для обработки" style="rounded=0;whiteSpace=wrap;html=1;" vertex="1" parent="-u59lbDl4Qi8jjfzpeMI-61">
          <mxGeometry x="220" y="65" width="80" height="140" as="geometry" />
        </mxCell>
        <mxCell id="-u59lbDl4Qi8jjfzpeMI-67" value="" style="shape=curlyBracket;whiteSpace=wrap;html=1;rounded=1;labelPosition=left;verticalLabelPosition=middle;align=right;verticalAlign=middle;rotation=90;" vertex="1" parent="-u59lbDl4Qi8jjfzpeMI-61">
          <mxGeometry x="200" y="-35" width="20" height="180" as="geometry" />
        </mxCell>
        <mxCell id="-u59lbDl4Qi8jjfzpeMI-68" value="N=8-1" style="text;html=1;align=center;verticalAlign=middle;whiteSpace=wrap;rounded=0;" vertex="1" parent="-u59lbDl4Qi8jjfzpeMI-61">
          <mxGeometry x="160" y="25" width="100" height="30" as="geometry" />
        </mxCell>
        <mxCell id="-u59lbDl4Qi8jjfzpeMI-69" value="загрузка" style="shape=umlActor;verticalLabelPosition=bottom;verticalAlign=top;html=1;outlineConnect=0;fillColor=#d5e8d4;strokeColor=#82b366;" vertex="1" parent="1">
          <mxGeometry x="-130" y="975" width="30" height="60" as="geometry" />
        </mxCell>
        <mxCell id="-u59lbDl4Qi8jjfzpeMI-70" value="обработка" style="shape=umlActor;verticalLabelPosition=bottom;verticalAlign=top;html=1;outlineConnect=0;fillColor=#f8cecc;strokeColor=#b85450;" vertex="1" parent="1">
          <mxGeometry x="-130" y="1105" width="30" height="60" as="geometry" />
        </mxCell>
        <mxCell id="-u59lbDl4Qi8jjfzpeMI-138" style="edgeStyle=orthogonalEdgeStyle;rounded=0;orthogonalLoop=1;jettySize=auto;html=1;entryX=0.5;entryY=1;entryDx=0;entryDy=0;fillColor=#f8cecc;strokeColor=#b85450;strokeWidth=3;" edge="1" parent="1" source="-u59lbDl4Qi8jjfzpeMI-73" target="-u59lbDl4Qi8jjfzpeMI-105">
          <mxGeometry relative="1" as="geometry">
            <Array as="points">
              <mxPoint x="680" y="1045" />
              <mxPoint x="680" y="1120" />
              <mxPoint x="1600" y="1120" />
            </Array>
          </mxGeometry>
        </mxCell>
        <mxCell id="-u59lbDl4Qi8jjfzpeMI-142" style="edgeStyle=orthogonalEdgeStyle;rounded=0;orthogonalLoop=1;jettySize=auto;html=1;entryX=0.75;entryY=0;entryDx=0;entryDy=0;fillColor=#d5e8d4;strokeColor=#82b366;strokeWidth=3;" edge="1" parent="1" source="-u59lbDl4Qi8jjfzpeMI-73" target="-u59lbDl4Qi8jjfzpeMI-91">
          <mxGeometry relative="1" as="geometry">
            <Array as="points">
              <mxPoint x="670" y="1050" />
              <mxPoint x="670" y="1140" />
              <mxPoint x="1620" y="1140" />
            </Array>
          </mxGeometry>
        </mxCell>
        <mxCell id="-u59lbDl4Qi8jjfzpeMI-73" value="посылка сообщений" style="rounded=0;whiteSpace=wrap;html=1;" vertex="1" parent="1">
          <mxGeometry x="290" y="1015" width="140" height="60" as="geometry" />
        </mxCell>
        <mxCell id="-u59lbDl4Qi8jjfzpeMI-74" style="edgeStyle=orthogonalEdgeStyle;rounded=0;orthogonalLoop=1;jettySize=auto;html=1;exitX=0.992;exitY=0.329;exitDx=0;exitDy=0;exitPerimeter=0;fillColor=#f8cecc;strokeColor=#b85450;entryX=0;entryY=0.75;entryDx=0;entryDy=0;strokeWidth=3;" edge="1" parent="1" source="-u59lbDl4Qi8jjfzpeMI-50" target="-u59lbDl4Qi8jjfzpeMI-73">
          <mxGeometry relative="1" as="geometry">
            <mxPoint x="290" y="1135" as="targetPoint" />
            <Array as="points">
              <mxPoint x="153" y="1061" />
              <mxPoint x="153" y="1060" />
            </Array>
          </mxGeometry>
        </mxCell>
        <mxCell id="-u59lbDl4Qi8jjfzpeMI-77" value="после&lt;div&gt;выполнения&lt;/div&gt;" style="edgeStyle=orthogonalEdgeStyle;rounded=0;orthogonalLoop=1;jettySize=auto;html=1;entryX=1.046;entryY=0.957;entryDx=0;entryDy=0;entryPerimeter=0;exitX=-0.007;exitY=0.9;exitDx=0;exitDy=0;exitPerimeter=0;fillColor=#f8cecc;strokeColor=#b85450;strokeWidth=3;" edge="1" parent="1" source="-u59lbDl4Qi8jjfzpeMI-52" target="-u59lbDl4Qi8jjfzpeMI-50">
          <mxGeometry relative="1" as="geometry">
            <Array as="points">
              <mxPoint x="280" y="1149" />
              <mxPoint x="280" y="1149" />
            </Array>
          </mxGeometry>
        </mxCell>
        <mxCell id="-u59lbDl4Qi8jjfzpeMI-78" value="после&lt;div&gt;выполнения&lt;/div&gt;" style="edgeStyle=orthogonalEdgeStyle;rounded=0;orthogonalLoop=1;jettySize=auto;html=1;exitX=0;exitY=0.25;exitDx=0;exitDy=0;fillColor=#6d8764;strokeColor=#3A5431;strokeWidth=3;" edge="1" parent="1" source="-u59lbDl4Qi8jjfzpeMI-52">
          <mxGeometry relative="1" as="geometry">
            <mxPoint x="150" y="1110" as="targetPoint" />
            <Array as="points">
              <mxPoint x="154" y="1110" />
            </Array>
          </mxGeometry>
        </mxCell>
        <mxCell id="-u59lbDl4Qi8jjfzpeMI-79" value="" style="endArrow=classic;startArrow=classic;html=1;rounded=0;entryX=0;entryY=0.25;entryDx=0;entryDy=0;fillColor=#d5e8d4;strokeColor=#82b366;strokeWidth=3;" edge="1" parent="1" source="-u59lbDl4Qi8jjfzpeMI-69" target="-u59lbDl4Qi8jjfzpeMI-50">
          <mxGeometry width="50" height="50" relative="1" as="geometry">
            <mxPoint x="390" y="1155" as="sourcePoint" />
            <mxPoint x="440" y="1105" as="targetPoint" />
          </mxGeometry>
        </mxCell>
        <mxCell id="-u59lbDl4Qi8jjfzpeMI-80" value="" style="endArrow=classic;startArrow=classic;html=1;rounded=0;entryX=0;entryY=0.45;entryDx=0;entryDy=0;entryPerimeter=0;fillColor=#f8cecc;strokeColor=#b85450;strokeWidth=3;" edge="1" parent="1" source="-u59lbDl4Qi8jjfzpeMI-70" target="-u59lbDl4Qi8jjfzpeMI-50">
          <mxGeometry width="50" height="50" relative="1" as="geometry">
            <mxPoint x="-90" y="1020" as="sourcePoint" />
            <mxPoint x="30" y="1060" as="targetPoint" />
          </mxGeometry>
        </mxCell>
        <mxCell id="-u59lbDl4Qi8jjfzpeMI-81" value="загрузка" style="swimlane;whiteSpace=wrap;html=1;fillColor=#e1d5e7;strokeColor=#9673a6;" vertex="1" parent="1">
          <mxGeometry x="1190" y="1450" width="320" height="240" as="geometry" />
        </mxCell>
        <mxCell id="-u59lbDl4Qi8jjfzpeMI-150" style="edgeStyle=orthogonalEdgeStyle;rounded=0;orthogonalLoop=1;jettySize=auto;html=1;exitX=0;exitY=0;exitDx=0;exitDy=0;fillColor=#6d8764;strokeColor=#3A5431;strokeWidth=3;" edge="1" parent="-u59lbDl4Qi8jjfzpeMI-81" source="-u59lbDl4Qi8jjfzpeMI-84">
          <mxGeometry relative="1" as="geometry">
            <mxPoint x="20" y="-149.99999999999955" as="targetPoint" />
          </mxGeometry>
        </mxCell>
        <mxCell id="-u59lbDl4Qi8jjfzpeMI-84" value="контроллер (родительский процесс)" style="rounded=0;whiteSpace=wrap;html=1;fillColor=#fff2cc;strokeColor=#d6b656;" vertex="1" parent="-u59lbDl4Qi8jjfzpeMI-81">
          <mxGeometry x="20" y="65" width="80" height="140" as="geometry" />
        </mxCell>
        <mxCell id="-u59lbDl4Qi8jjfzpeMI-85" value="" style="rounded=0;whiteSpace=wrap;html=1;" vertex="1" parent="-u59lbDl4Qi8jjfzpeMI-81">
          <mxGeometry x="120" y="65" width="80" height="140" as="geometry" />
        </mxCell>
        <mxCell id="-u59lbDl4Qi8jjfzpeMI-86" value="" style="rounded=0;whiteSpace=wrap;html=1;" vertex="1" parent="-u59lbDl4Qi8jjfzpeMI-81">
          <mxGeometry x="220" y="65" width="80" height="140" as="geometry" />
        </mxCell>
        <mxCell id="-u59lbDl4Qi8jjfzpeMI-87" value="" style="shape=curlyBracket;whiteSpace=wrap;html=1;rounded=1;labelPosition=left;verticalLabelPosition=middle;align=right;verticalAlign=middle;rotation=90;" vertex="1" parent="-u59lbDl4Qi8jjfzpeMI-81">
          <mxGeometry x="200" y="-35" width="20" height="180" as="geometry" />
        </mxCell>
        <mxCell id="-u59lbDl4Qi8jjfzpeMI-88" value="N=64-2" style="text;html=1;align=center;verticalAlign=middle;whiteSpace=wrap;rounded=0;" vertex="1" parent="-u59lbDl4Qi8jjfzpeMI-81">
          <mxGeometry x="160" y="25" width="100" height="30" as="geometry" />
        </mxCell>
        <mxCell id="-u59lbDl4Qi8jjfzpeMI-90" value="загрузка" style="swimlane;whiteSpace=wrap;html=1;fillColor=#e1d5e7;strokeColor=#9673a6;" vertex="1" parent="1">
          <mxGeometry x="1540" y="1450" width="320" height="240" as="geometry" />
        </mxCell>
        <mxCell id="-u59lbDl4Qi8jjfzpeMI-91" value="контроллер (родительский процесс)" style="rounded=0;whiteSpace=wrap;html=1;fillColor=#fff2cc;strokeColor=#d6b656;" vertex="1" parent="-u59lbDl4Qi8jjfzpeMI-90">
          <mxGeometry x="20" y="65" width="80" height="140" as="geometry" />
        </mxCell>
        <mxCell id="-u59lbDl4Qi8jjfzpeMI-92" value="" style="rounded=0;whiteSpace=wrap;html=1;" vertex="1" parent="-u59lbDl4Qi8jjfzpeMI-90">
          <mxGeometry x="120" y="65" width="80" height="140" as="geometry" />
        </mxCell>
        <mxCell id="-u59lbDl4Qi8jjfzpeMI-93" value="" style="rounded=0;whiteSpace=wrap;html=1;" vertex="1" parent="-u59lbDl4Qi8jjfzpeMI-90">
          <mxGeometry x="220" y="65" width="80" height="140" as="geometry" />
        </mxCell>
        <mxCell id="-u59lbDl4Qi8jjfzpeMI-94" value="" style="shape=curlyBracket;whiteSpace=wrap;html=1;rounded=1;labelPosition=left;verticalLabelPosition=middle;align=right;verticalAlign=middle;rotation=90;" vertex="1" parent="-u59lbDl4Qi8jjfzpeMI-90">
          <mxGeometry x="200" y="-35" width="20" height="180" as="geometry" />
        </mxCell>
        <mxCell id="-u59lbDl4Qi8jjfzpeMI-95" value="N=32-2" style="text;html=1;align=center;verticalAlign=middle;whiteSpace=wrap;rounded=0;" vertex="1" parent="-u59lbDl4Qi8jjfzpeMI-90">
          <mxGeometry x="160" y="25" width="100" height="30" as="geometry" />
        </mxCell>
        <mxCell id="-u59lbDl4Qi8jjfzpeMI-96" value="обработка" style="swimlane;whiteSpace=wrap;html=1;fillColor=#dae8fc;strokeColor=#6c8ebf;" vertex="1" parent="1">
          <mxGeometry x="1190" y="790" width="320" height="280" as="geometry" />
        </mxCell>
        <mxCell id="-u59lbDl4Qi8jjfzpeMI-147" style="edgeStyle=orthogonalEdgeStyle;rounded=0;orthogonalLoop=1;jettySize=auto;html=1;fillColor=#a0522d;strokeColor=#6D1F00;exitX=0.25;exitY=1;exitDx=0;exitDy=0;strokeWidth=3;" edge="1" parent="-u59lbDl4Qi8jjfzpeMI-96" source="-u59lbDl4Qi8jjfzpeMI-99">
          <mxGeometry relative="1" as="geometry">
            <mxPoint x="40" y="500" as="targetPoint" />
          </mxGeometry>
        </mxCell>
        <mxCell id="-u59lbDl4Qi8jjfzpeMI-99" value="контроллер (родительский процесс)" style="rounded=0;whiteSpace=wrap;html=1;fillColor=#fff2cc;strokeColor=#d6b656;" vertex="1" parent="-u59lbDl4Qi8jjfzpeMI-96">
          <mxGeometry x="20" y="65" width="80" height="140" as="geometry" />
        </mxCell>
        <mxCell id="-u59lbDl4Qi8jjfzpeMI-100" value="" style="rounded=0;whiteSpace=wrap;html=1;" vertex="1" parent="-u59lbDl4Qi8jjfzpeMI-96">
          <mxGeometry x="120" y="65" width="80" height="140" as="geometry" />
        </mxCell>
        <mxCell id="-u59lbDl4Qi8jjfzpeMI-101" value="" style="rounded=0;whiteSpace=wrap;html=1;" vertex="1" parent="-u59lbDl4Qi8jjfzpeMI-96">
          <mxGeometry x="220" y="65" width="80" height="140" as="geometry" />
        </mxCell>
        <mxCell id="-u59lbDl4Qi8jjfzpeMI-102" value="" style="shape=curlyBracket;whiteSpace=wrap;html=1;rounded=1;labelPosition=left;verticalLabelPosition=middle;align=right;verticalAlign=middle;rotation=90;" vertex="1" parent="-u59lbDl4Qi8jjfzpeMI-96">
          <mxGeometry x="200" y="-35" width="20" height="180" as="geometry" />
        </mxCell>
        <mxCell id="-u59lbDl4Qi8jjfzpeMI-103" value="N=8-1" style="text;html=1;align=center;verticalAlign=middle;whiteSpace=wrap;rounded=0;" vertex="1" parent="-u59lbDl4Qi8jjfzpeMI-96">
          <mxGeometry x="160" y="25" width="100" height="30" as="geometry" />
        </mxCell>
        <mxCell id="-u59lbDl4Qi8jjfzpeMI-124" value="X=8" style="text;html=1;align=center;verticalAlign=middle;whiteSpace=wrap;rounded=0;" vertex="1" parent="-u59lbDl4Qi8jjfzpeMI-96">
          <mxGeometry x="-350" y="-30" width="60" height="30" as="geometry" />
        </mxCell>
        <mxCell id="-u59lbDl4Qi8jjfzpeMI-125" value="X=8" style="text;html=1;align=center;verticalAlign=middle;whiteSpace=wrap;rounded=0;" vertex="1" parent="-u59lbDl4Qi8jjfzpeMI-96">
          <mxGeometry y="-30" width="60" height="30" as="geometry" />
        </mxCell>
        <mxCell id="-u59lbDl4Qi8jjfzpeMI-126" value="X=16" style="text;html=1;align=center;verticalAlign=middle;whiteSpace=wrap;rounded=0;" vertex="1" parent="-u59lbDl4Qi8jjfzpeMI-96">
          <mxGeometry x="350" y="-30" width="60" height="30" as="geometry" />
        </mxCell>
        <mxCell id="-u59lbDl4Qi8jjfzpeMI-104" value="обработка" style="swimlane;whiteSpace=wrap;html=1;fillColor=#dae8fc;strokeColor=#6c8ebf;" vertex="1" parent="1">
          <mxGeometry x="1540" y="790" width="320" height="280" as="geometry" />
        </mxCell>
        <mxCell id="-u59lbDl4Qi8jjfzpeMI-105" value="контроллер (родительский процесс)" style="rounded=0;whiteSpace=wrap;html=1;fillColor=#fff2cc;strokeColor=#d6b656;" vertex="1" parent="-u59lbDl4Qi8jjfzpeMI-104">
          <mxGeometry x="20" y="65" width="80" height="140" as="geometry" />
        </mxCell>
        <mxCell id="-u59lbDl4Qi8jjfzpeMI-106" value="" style="rounded=0;whiteSpace=wrap;html=1;" vertex="1" parent="-u59lbDl4Qi8jjfzpeMI-104">
          <mxGeometry x="120" y="65" width="80" height="140" as="geometry" />
        </mxCell>
        <mxCell id="-u59lbDl4Qi8jjfzpeMI-107" value="" style="rounded=0;whiteSpace=wrap;html=1;" vertex="1" parent="-u59lbDl4Qi8jjfzpeMI-104">
          <mxGeometry x="220" y="65" width="80" height="140" as="geometry" />
        </mxCell>
        <mxCell id="-u59lbDl4Qi8jjfzpeMI-108" value="" style="shape=curlyBracket;whiteSpace=wrap;html=1;rounded=1;labelPosition=left;verticalLabelPosition=middle;align=right;verticalAlign=middle;rotation=90;" vertex="1" parent="-u59lbDl4Qi8jjfzpeMI-104">
          <mxGeometry x="200" y="-35" width="20" height="180" as="geometry" />
        </mxCell>
        <mxCell id="-u59lbDl4Qi8jjfzpeMI-109" value="N=16-1" style="text;html=1;align=center;verticalAlign=middle;whiteSpace=wrap;rounded=0;" vertex="1" parent="-u59lbDl4Qi8jjfzpeMI-104">
          <mxGeometry x="160" y="25" width="100" height="30" as="geometry" />
        </mxCell>
        <mxCell id="-u59lbDl4Qi8jjfzpeMI-111" value="" style="endArrow=classic;html=1;rounded=0;entryX=1;entryY=0;entryDx=0;entryDy=0;" edge="1" parent="1" target="-u59lbDl4Qi8jjfzpeMI-73">
          <mxGeometry width="50" height="50" relative="1" as="geometry">
            <mxPoint x="510" y="900" as="sourcePoint" />
            <mxPoint x="1090" y="1170" as="targetPoint" />
          </mxGeometry>
        </mxCell>
        <mxCell id="-u59lbDl4Qi8jjfzpeMI-112" value="&lt;h1 style=&quot;margin-top: 0px;&quot;&gt;контроль сообщений&lt;/h1&gt;&lt;p&gt;сообщения стараются распределяться равномерно. к примеру, если у нас 3 сообщения обработки и 3 контейнера обработки с двумя воркерами в каждом, то распределение -- 2:1:0. если сообщений 6, то распредлеение -- 2:2:2&lt;/p&gt;" style="text;html=1;whiteSpace=wrap;overflow=hidden;rounded=0;" vertex="1" parent="1">
          <mxGeometry x="480" y="770" width="300" height="130" as="geometry" />
        </mxCell>
        <mxCell id="-u59lbDl4Qi8jjfzpeMI-113" value="&lt;h1 style=&quot;margin-top: 0px;&quot;&gt;&lt;span style=&quot;background-color: initial;&quot;&gt;каждый контейнер может быть развернут на отдельном сервере&lt;/span&gt;&lt;br&gt;&lt;/h1&gt;" style="text;html=1;whiteSpace=wrap;overflow=hidden;rounded=0;" vertex="1" parent="1">
          <mxGeometry x="1200" y="1935" width="300" height="120" as="geometry" />
        </mxCell>
        <mxCell id="-u59lbDl4Qi8jjfzpeMI-114" value="" style="endArrow=classic;html=1;rounded=0;exitX=0.5;exitY=0;exitDx=0;exitDy=0;entryX=0.75;entryY=1;entryDx=0;entryDy=0;" edge="1" parent="1" source="-u59lbDl4Qi8jjfzpeMI-113" target="-u59lbDl4Qi8jjfzpeMI-53">
          <mxGeometry width="50" height="50" relative="1" as="geometry">
            <mxPoint x="930" y="1655" as="sourcePoint" />
            <mxPoint x="980" y="1605" as="targetPoint" />
          </mxGeometry>
        </mxCell>
        <mxCell id="-u59lbDl4Qi8jjfzpeMI-116" value="" style="endArrow=classic;html=1;rounded=0;exitX=0.5;exitY=0;exitDx=0;exitDy=0;entryX=0.5;entryY=1;entryDx=0;entryDy=0;" edge="1" parent="1" source="-u59lbDl4Qi8jjfzpeMI-113" target="-u59lbDl4Qi8jjfzpeMI-81">
          <mxGeometry width="50" height="50" relative="1" as="geometry">
            <mxPoint x="1300" y="1945" as="sourcePoint" />
            <mxPoint x="1090" y="1740" as="targetPoint" />
          </mxGeometry>
        </mxCell>
        <mxCell id="-u59lbDl4Qi8jjfzpeMI-117" value="" style="endArrow=classic;html=1;rounded=0;exitX=0.5;exitY=0;exitDx=0;exitDy=0;entryX=0.5;entryY=1;entryDx=0;entryDy=0;" edge="1" parent="1" source="-u59lbDl4Qi8jjfzpeMI-113" target="-u59lbDl4Qi8jjfzpeMI-90">
          <mxGeometry width="50" height="50" relative="1" as="geometry">
            <mxPoint x="1310" y="1955" as="sourcePoint" />
            <mxPoint x="1100" y="1750" as="targetPoint" />
          </mxGeometry>
        </mxCell>
        <mxCell id="-u59lbDl4Qi8jjfzpeMI-119" value="&lt;h1 style=&quot;margin-top: 0px;&quot;&gt;&lt;span style=&quot;background-color: initial;&quot;&gt;очередь желательно масштабировать&lt;/span&gt;&lt;br&gt;&lt;/h1&gt;" style="text;html=1;whiteSpace=wrap;overflow=hidden;rounded=0;" vertex="1" parent="1">
          <mxGeometry x="210" y="750" width="210" height="120" as="geometry" />
        </mxCell>
        <mxCell id="-u59lbDl4Qi8jjfzpeMI-120" value="" style="endArrow=classic;html=1;rounded=0;entryX=0.25;entryY=0;entryDx=0;entryDy=0;" edge="1" parent="1" target="-u59lbDl4Qi8jjfzpeMI-51">
          <mxGeometry width="50" height="50" relative="1" as="geometry">
            <mxPoint x="320" y="840" as="sourcePoint" />
            <mxPoint x="240" y="955" as="targetPoint" />
          </mxGeometry>
        </mxCell>
        <mxCell id="-u59lbDl4Qi8jjfzpeMI-121" value="X=8" style="text;html=1;align=center;verticalAlign=middle;whiteSpace=wrap;rounded=0;" vertex="1" parent="1">
          <mxGeometry x="840" y="1420" width="60" height="30" as="geometry" />
        </mxCell>
        <mxCell id="-u59lbDl4Qi8jjfzpeMI-122" value="X=64" style="text;html=1;align=center;verticalAlign=middle;whiteSpace=wrap;rounded=0;" vertex="1" parent="1">
          <mxGeometry x="1190" y="1420" width="60" height="30" as="geometry" />
        </mxCell>
        <mxCell id="-u59lbDl4Qi8jjfzpeMI-123" value="X=32" style="text;html=1;align=center;verticalAlign=middle;whiteSpace=wrap;rounded=0;" vertex="1" parent="1">
          <mxGeometry x="1540" y="1420" width="60" height="30" as="geometry" />
        </mxCell>
        <mxCell id="-u59lbDl4Qi8jjfzpeMI-127" value="сервер" style="swimlane;whiteSpace=wrap;html=1;" vertex="1" parent="1">
          <mxGeometry x="-130" y="-90" width="1250" height="650" as="geometry" />
        </mxCell>
        <mxCell id="-u59lbDl4Qi8jjfzpeMI-128" value="сервер" style="swimlane;whiteSpace=wrap;html=1;" vertex="1" parent="1">
          <mxGeometry x="-40" y="930" width="540" height="280" as="geometry" />
        </mxCell>
        <mxCell id="-u59lbDl4Qi8jjfzpeMI-129" value="сервер" style="swimlane;whiteSpace=wrap;html=1;" vertex="1" parent="1">
          <mxGeometry x="830" y="730" width="340" height="350" as="geometry" />
        </mxCell>
        <mxCell id="-u59lbDl4Qi8jjfzpeMI-141" value="" style="edgeStyle=segmentEdgeStyle;endArrow=classic;html=1;curved=0;rounded=0;endSize=8;startSize=8;entryX=0;entryY=0.5;entryDx=0;entryDy=0;fillColor=#f8cecc;strokeColor=#b85450;strokeWidth=3;" edge="1" parent="-u59lbDl4Qi8jjfzpeMI-129">
          <mxGeometry width="50" height="50" relative="1" as="geometry">
            <mxPoint x="320" y="390" as="sourcePoint" />
            <mxPoint x="380" y="190" as="targetPoint" />
            <Array as="points">
              <mxPoint x="320" y="385" />
              <mxPoint x="320" y="190" />
            </Array>
          </mxGeometry>
        </mxCell>
        <mxCell id="-u59lbDl4Qi8jjfzpeMI-130" value="сервер" style="swimlane;whiteSpace=wrap;html=1;" vertex="1" parent="1">
          <mxGeometry x="1180" y="730" width="340" height="350" as="geometry" />
        </mxCell>
        <mxCell id="-u59lbDl4Qi8jjfzpeMI-131" value="сервер" style="swimlane;whiteSpace=wrap;html=1;" vertex="1" parent="1">
          <mxGeometry x="1530" y="730" width="340" height="350" as="geometry" />
        </mxCell>
        <mxCell id="-u59lbDl4Qi8jjfzpeMI-132" value="сервер" style="swimlane;whiteSpace=wrap;html=1;" vertex="1" parent="1">
          <mxGeometry x="830" y="1400" width="340" height="350" as="geometry" />
        </mxCell>
        <mxCell id="-u59lbDl4Qi8jjfzpeMI-209" value="FastApi сервис, отправляющий видео реквестом" style="rounded=0;whiteSpace=wrap;html=1;fillColor=#b0e3e6;strokeColor=#0e8088;" vertex="1" parent="-u59lbDl4Qi8jjfzpeMI-132">
          <mxGeometry x="10" y="300" width="100" height="40" as="geometry" />
        </mxCell>
        <mxCell id="-u59lbDl4Qi8jjfzpeMI-133" value="сервер" style="swimlane;whiteSpace=wrap;html=1;" vertex="1" parent="1">
          <mxGeometry x="1180" y="1400" width="340" height="350" as="geometry" />
        </mxCell>
        <mxCell id="-u59lbDl4Qi8jjfzpeMI-210" value="" style="rounded=0;whiteSpace=wrap;html=1;fillColor=#b0e3e6;strokeColor=#0e8088;" vertex="1" parent="-u59lbDl4Qi8jjfzpeMI-133">
          <mxGeometry x="10" y="300" width="100" height="40" as="geometry" />
        </mxCell>
        <mxCell id="-u59lbDl4Qi8jjfzpeMI-134" value="сервер" style="swimlane;whiteSpace=wrap;html=1;" vertex="1" parent="1">
          <mxGeometry x="1530" y="1400" width="340" height="350" as="geometry" />
        </mxCell>
        <mxCell id="-u59lbDl4Qi8jjfzpeMI-211" value="" style="rounded=0;whiteSpace=wrap;html=1;fillColor=#b0e3e6;strokeColor=#0e8088;" vertex="1" parent="-u59lbDl4Qi8jjfzpeMI-134">
          <mxGeometry x="10" y="300" width="100" height="40" as="geometry" />
        </mxCell>
        <mxCell id="-u59lbDl4Qi8jjfzpeMI-140" value="" style="edgeStyle=segmentEdgeStyle;endArrow=classic;html=1;curved=0;rounded=0;endSize=8;startSize=8;entryX=0;entryY=0.5;entryDx=0;entryDy=0;fillColor=#f8cecc;strokeColor=#b85450;strokeWidth=3;" edge="1" parent="1" target="-u59lbDl4Qi8jjfzpeMI-64">
          <mxGeometry width="50" height="50" relative="1" as="geometry">
            <mxPoint x="780" y="1120" as="sourcePoint" />
            <mxPoint x="1040" y="1160" as="targetPoint" />
            <Array as="points">
              <mxPoint x="780" y="1120" />
              <mxPoint x="780" y="925" />
            </Array>
          </mxGeometry>
        </mxCell>
        <mxCell id="-u59lbDl4Qi8jjfzpeMI-143" value="" style="endArrow=classic;html=1;rounded=0;entryX=0.5;entryY=0;entryDx=0;entryDy=0;fillColor=#d5e8d4;strokeColor=#82b366;strokeWidth=3;" edge="1" parent="1" target="-u59lbDl4Qi8jjfzpeMI-84">
          <mxGeometry width="50" height="50" relative="1" as="geometry">
            <mxPoint x="1250" y="1140" as="sourcePoint" />
            <mxPoint x="930" y="1270" as="targetPoint" />
          </mxGeometry>
        </mxCell>
        <mxCell id="-u59lbDl4Qi8jjfzpeMI-144" value="" style="endArrow=classic;html=1;rounded=0;entryX=0.5;entryY=0;entryDx=0;entryDy=0;fillColor=#d5e8d4;strokeColor=#82b366;strokeWidth=3;" edge="1" parent="1">
          <mxGeometry width="50" height="50" relative="1" as="geometry">
            <mxPoint x="900" y="1140" as="sourcePoint" />
            <mxPoint x="900" y="1515" as="targetPoint" />
          </mxGeometry>
        </mxCell>
        <mxCell id="-u59lbDl4Qi8jjfzpeMI-145" value="после выполнения" style="edgeStyle=orthogonalEdgeStyle;rounded=0;orthogonalLoop=1;jettySize=auto;html=1;entryX=1;entryY=0.5;entryDx=0;entryDy=0;exitX=0.25;exitY=1;exitDx=0;exitDy=0;fillColor=#a0522d;strokeColor=#6D1F00;strokeWidth=3;" edge="1" parent="1" source="-u59lbDl4Qi8jjfzpeMI-105" target="-u59lbDl4Qi8jjfzpeMI-52">
          <mxGeometry x="0.3851" relative="1" as="geometry">
            <Array as="points">
              <mxPoint x="1580" y="1290" />
              <mxPoint x="560" y="1290" />
              <mxPoint x="560" y="1125" />
            </Array>
            <mxPoint as="offset" />
          </mxGeometry>
        </mxCell>
        <mxCell id="-u59lbDl4Qi8jjfzpeMI-146" value="после выполнения" style="edgeStyle=orthogonalEdgeStyle;rounded=0;orthogonalLoop=1;jettySize=auto;html=1;entryX=1.008;entryY=0.674;entryDx=0;entryDy=0;entryPerimeter=0;fillColor=#6d8764;strokeColor=#3A5431;strokeWidth=3;" edge="1" parent="1" target="-u59lbDl4Qi8jjfzpeMI-52">
          <mxGeometry x="0.5505" relative="1" as="geometry">
            <mxPoint x="1570" y="1515" as="sourcePoint" />
            <mxPoint x="440" y="1135" as="targetPoint" />
            <Array as="points">
              <mxPoint x="1570" y="1515" />
              <mxPoint x="1570" y="1300" />
              <mxPoint x="540" y="1300" />
              <mxPoint x="540" y="1135" />
            </Array>
            <mxPoint as="offset" />
          </mxGeometry>
        </mxCell>
        <mxCell id="-u59lbDl4Qi8jjfzpeMI-152" value="&lt;h1 style=&quot;margin-top: 0px;&quot;&gt;сервер с очередью контроллирует где лежат видео&lt;/h1&gt;&lt;p&gt;пересылать видео долго, поэтому будет разумно хранить каждое видео там, где оно было скачано. из этого вытекает проблема, что мы не знаем на каком сервере будет лежать нужное видео. ответ прост, нужно завести бд, в которой будет храниться местоположение видео, а именно -- локация и имя файла&lt;/p&gt;" style="text;html=1;whiteSpace=wrap;overflow=hidden;rounded=0;" vertex="1" parent="1">
          <mxGeometry x="250" y="1390" width="340" height="210" as="geometry" />
        </mxCell>
        <mxCell id="-u59lbDl4Qi8jjfzpeMI-153" value="" style="endArrow=classic;html=1;rounded=0;entryX=0.652;entryY=1.092;entryDx=0;entryDy=0;entryPerimeter=0;exitX=0.424;exitY=-0.006;exitDx=0;exitDy=0;exitPerimeter=0;" edge="1" parent="1" source="-u59lbDl4Qi8jjfzpeMI-152" target="-u59lbDl4Qi8jjfzpeMI-52">
          <mxGeometry width="50" height="50" relative="1" as="geometry">
            <mxPoint x="510" y="1210" as="sourcePoint" />
            <mxPoint x="560" y="1160" as="targetPoint" />
          </mxGeometry>
        </mxCell>
        <mxCell id="-u59lbDl4Qi8jjfzpeMI-154" value="сценарий обработки видео" style="swimlane;whiteSpace=wrap;html=1;" vertex="1" parent="1">
          <mxGeometry x="260" y="2170" width="1670" height="910" as="geometry" />
        </mxCell>
        <mxCell id="-u59lbDl4Qi8jjfzpeMI-155" value="FASTAPI" style="swimlane;whiteSpace=wrap;html=1;" vertex="1" parent="-u59lbDl4Qi8jjfzpeMI-154">
          <mxGeometry x="130" y="95" width="200" height="200" as="geometry" />
        </mxCell>
        <mxCell id="-u59lbDl4Qi8jjfzpeMI-157" value="роутинг" style="rounded=0;whiteSpace=wrap;html=1;" vertex="1" parent="-u59lbDl4Qi8jjfzpeMI-155">
          <mxGeometry x="30" y="40" width="130" height="140" as="geometry" />
        </mxCell>
        <mxCell id="-u59lbDl4Qi8jjfzpeMI-158" value="KAFKA / RABBITMQ" style="swimlane;whiteSpace=wrap;html=1;" vertex="1" parent="-u59lbDl4Qi8jjfzpeMI-154">
          <mxGeometry x="400" y="95" width="200" height="200" as="geometry" />
        </mxCell>
        <mxCell id="-u59lbDl4Qi8jjfzpeMI-159" value="прием сообщений" style="rounded=0;whiteSpace=wrap;html=1;" vertex="1" parent="-u59lbDl4Qi8jjfzpeMI-158">
          <mxGeometry x="30" y="120" width="140" height="60" as="geometry" />
        </mxCell>
        <mxCell id="-u59lbDl4Qi8jjfzpeMI-161" value="обработка" style="shape=umlActor;verticalLabelPosition=bottom;verticalAlign=top;html=1;outlineConnect=0;fillColor=#f8cecc;strokeColor=#b85450;" vertex="1" parent="-u59lbDl4Qi8jjfzpeMI-154">
          <mxGeometry x="10" y="225" width="30" height="60" as="geometry" />
        </mxCell>
        <mxCell id="-u59lbDl4Qi8jjfzpeMI-200" style="edgeStyle=orthogonalEdgeStyle;rounded=0;orthogonalLoop=1;jettySize=auto;html=1;fillColor=#f8cecc;strokeColor=#b85450;strokeWidth=3;" edge="1" parent="-u59lbDl4Qi8jjfzpeMI-154" source="-u59lbDl4Qi8jjfzpeMI-162" target="-u59lbDl4Qi8jjfzpeMI-199">
          <mxGeometry relative="1" as="geometry">
            <Array as="points">
              <mxPoint x="680" y="145" />
              <mxPoint x="680" y="115" />
            </Array>
          </mxGeometry>
        </mxCell>
        <mxCell id="-u59lbDl4Qi8jjfzpeMI-162" value="посылка сообщений" style="rounded=0;whiteSpace=wrap;html=1;" vertex="1" parent="-u59lbDl4Qi8jjfzpeMI-154">
          <mxGeometry x="430" y="135" width="140" height="60" as="geometry" />
        </mxCell>
        <mxCell id="-u59lbDl4Qi8jjfzpeMI-163" style="edgeStyle=orthogonalEdgeStyle;rounded=0;orthogonalLoop=1;jettySize=auto;html=1;exitX=0.992;exitY=0.329;exitDx=0;exitDy=0;exitPerimeter=0;fillColor=#f8cecc;strokeColor=#b85450;entryX=0;entryY=0.75;entryDx=0;entryDy=0;strokeWidth=3;" edge="1" parent="-u59lbDl4Qi8jjfzpeMI-154" source="-u59lbDl4Qi8jjfzpeMI-157" target="-u59lbDl4Qi8jjfzpeMI-162">
          <mxGeometry relative="1" as="geometry">
            <mxPoint x="430" y="255" as="targetPoint" />
            <Array as="points">
              <mxPoint x="293" y="181" />
              <mxPoint x="293" y="180" />
            </Array>
          </mxGeometry>
        </mxCell>
        <mxCell id="-u59lbDl4Qi8jjfzpeMI-164" value="&lt;div&gt;&lt;br&gt;&lt;/div&gt;" style="edgeStyle=orthogonalEdgeStyle;rounded=0;orthogonalLoop=1;jettySize=auto;html=1;entryX=1.046;entryY=0.957;entryDx=0;entryDy=0;entryPerimeter=0;exitX=-0.007;exitY=0.9;exitDx=0;exitDy=0;exitPerimeter=0;fillColor=#f8cecc;strokeColor=#b85450;strokeWidth=3;" edge="1" parent="-u59lbDl4Qi8jjfzpeMI-154" source="-u59lbDl4Qi8jjfzpeMI-159" target="-u59lbDl4Qi8jjfzpeMI-157">
          <mxGeometry relative="1" as="geometry">
            <Array as="points">
              <mxPoint x="420" y="269" />
              <mxPoint x="420" y="269" />
            </Array>
          </mxGeometry>
        </mxCell>
        <mxCell id="-u59lbDl4Qi8jjfzpeMI-167" value="" style="endArrow=classic;startArrow=classic;html=1;rounded=0;entryX=0;entryY=0.45;entryDx=0;entryDy=0;entryPerimeter=0;fillColor=#f8cecc;strokeColor=#b85450;strokeWidth=3;" edge="1" parent="-u59lbDl4Qi8jjfzpeMI-154" source="-u59lbDl4Qi8jjfzpeMI-161" target="-u59lbDl4Qi8jjfzpeMI-157">
          <mxGeometry width="50" height="50" relative="1" as="geometry">
            <mxPoint x="50" y="140" as="sourcePoint" />
            <mxPoint x="170" y="180" as="targetPoint" />
          </mxGeometry>
        </mxCell>
        <mxCell id="-u59lbDl4Qi8jjfzpeMI-168" value="" style="endArrow=classic;html=1;rounded=0;entryX=1;entryY=0;entryDx=0;entryDy=0;" edge="1" parent="-u59lbDl4Qi8jjfzpeMI-154" target="-u59lbDl4Qi8jjfzpeMI-162">
          <mxGeometry width="50" height="50" relative="1" as="geometry">
            <mxPoint x="650" y="20" as="sourcePoint" />
            <mxPoint x="1230" y="290" as="targetPoint" />
          </mxGeometry>
        </mxCell>
        <mxCell id="-u59lbDl4Qi8jjfzpeMI-169" value="сервер" style="swimlane;whiteSpace=wrap;html=1;" vertex="1" parent="-u59lbDl4Qi8jjfzpeMI-154">
          <mxGeometry x="100" y="50" width="540" height="280" as="geometry" />
        </mxCell>
        <mxCell id="-u59lbDl4Qi8jjfzpeMI-170" value="обработка" style="swimlane;whiteSpace=wrap;html=1;fillColor=#dae8fc;strokeColor=#6c8ebf;" vertex="1" parent="-u59lbDl4Qi8jjfzpeMI-154">
          <mxGeometry x="440" y="570" width="320" height="280" as="geometry" />
        </mxCell>
        <mxCell id="-u59lbDl4Qi8jjfzpeMI-174" value="контроллер (родительский процесс)" style="rounded=0;whiteSpace=wrap;html=1;fillColor=#fff2cc;strokeColor=#d6b656;" vertex="1" parent="-u59lbDl4Qi8jjfzpeMI-170">
          <mxGeometry x="20" y="65" width="80" height="140" as="geometry" />
        </mxCell>
        <mxCell id="-u59lbDl4Qi8jjfzpeMI-175" value="" style="rounded=0;whiteSpace=wrap;html=1;" vertex="1" parent="-u59lbDl4Qi8jjfzpeMI-170">
          <mxGeometry x="120" y="65" width="80" height="140" as="geometry" />
        </mxCell>
        <mxCell id="-u59lbDl4Qi8jjfzpeMI-176" value="" style="rounded=0;whiteSpace=wrap;html=1;" vertex="1" parent="-u59lbDl4Qi8jjfzpeMI-170">
          <mxGeometry x="220" y="65" width="80" height="140" as="geometry" />
        </mxCell>
        <mxCell id="-u59lbDl4Qi8jjfzpeMI-179" value="сервер" style="swimlane;whiteSpace=wrap;html=1;" vertex="1" parent="-u59lbDl4Qi8jjfzpeMI-154">
          <mxGeometry x="430" y="510" width="340" height="350" as="geometry" />
        </mxCell>
        <mxCell id="-u59lbDl4Qi8jjfzpeMI-181" value="загрузка" style="swimlane;whiteSpace=wrap;html=1;fillColor=#e1d5e7;strokeColor=#9673a6;" vertex="1" parent="-u59lbDl4Qi8jjfzpeMI-154">
          <mxGeometry x="1320" y="485" width="320" height="210" as="geometry" />
        </mxCell>
        <mxCell id="-u59lbDl4Qi8jjfzpeMI-190" value="сервер" style="swimlane;whiteSpace=wrap;html=1;" vertex="1" parent="-u59lbDl4Qi8jjfzpeMI-154">
          <mxGeometry x="1310" y="435" width="340" height="350" as="geometry" />
        </mxCell>
        <mxCell id="-u59lbDl4Qi8jjfzpeMI-185" value="контроллер (родительский процесс)" style="rounded=0;whiteSpace=wrap;html=1;fillColor=#fff2cc;strokeColor=#d6b656;" vertex="1" parent="-u59lbDl4Qi8jjfzpeMI-190">
          <mxGeometry x="30" y="95" width="80" height="140" as="geometry" />
        </mxCell>
        <mxCell id="-u59lbDl4Qi8jjfzpeMI-186" value="" style="rounded=0;whiteSpace=wrap;html=1;" vertex="1" parent="-u59lbDl4Qi8jjfzpeMI-190">
          <mxGeometry x="130" y="95" width="80" height="140" as="geometry" />
        </mxCell>
        <mxCell id="-u59lbDl4Qi8jjfzpeMI-187" value="" style="rounded=0;whiteSpace=wrap;html=1;" vertex="1" parent="-u59lbDl4Qi8jjfzpeMI-190">
          <mxGeometry x="230" y="95" width="80" height="140" as="geometry" />
        </mxCell>
        <mxCell id="-u59lbDl4Qi8jjfzpeMI-212" value="" style="rounded=0;whiteSpace=wrap;html=1;fillColor=#b0e3e6;strokeColor=#0e8088;" vertex="1" parent="-u59lbDl4Qi8jjfzpeMI-190">
          <mxGeometry x="10" y="275" width="120" height="60" as="geometry" />
        </mxCell>
        <mxCell id="-u59lbDl4Qi8jjfzpeMI-192" value="загрузка" style="swimlane;whiteSpace=wrap;html=1;fillColor=#e1d5e7;strokeColor=#9673a6;" vertex="1" parent="-u59lbDl4Qi8jjfzpeMI-154">
          <mxGeometry x="1320" y="100" width="320" height="210" as="geometry" />
        </mxCell>
        <mxCell id="-u59lbDl4Qi8jjfzpeMI-196" value="сервер" style="swimlane;whiteSpace=wrap;html=1;" vertex="1" parent="-u59lbDl4Qi8jjfzpeMI-154">
          <mxGeometry x="1310" y="50" width="340" height="350" as="geometry" />
        </mxCell>
        <mxCell id="-u59lbDl4Qi8jjfzpeMI-193" value="контроллер (родительский процесс)" style="rounded=0;whiteSpace=wrap;html=1;fillColor=#fff2cc;strokeColor=#d6b656;" vertex="1" parent="-u59lbDl4Qi8jjfzpeMI-196">
          <mxGeometry x="30" y="95" width="80" height="140" as="geometry" />
        </mxCell>
        <mxCell id="-u59lbDl4Qi8jjfzpeMI-194" value="" style="rounded=0;whiteSpace=wrap;html=1;" vertex="1" parent="-u59lbDl4Qi8jjfzpeMI-196">
          <mxGeometry x="130" y="95" width="80" height="140" as="geometry" />
        </mxCell>
        <mxCell id="-u59lbDl4Qi8jjfzpeMI-195" value="" style="rounded=0;whiteSpace=wrap;html=1;" vertex="1" parent="-u59lbDl4Qi8jjfzpeMI-196">
          <mxGeometry x="230" y="95" width="80" height="140" as="geometry" />
        </mxCell>
        <mxCell id="-u59lbDl4Qi8jjfzpeMI-203" style="edgeStyle=orthogonalEdgeStyle;rounded=0;orthogonalLoop=1;jettySize=auto;html=1;entryX=1;entryY=0.5;entryDx=0;entryDy=0;strokeWidth=3;fillColor=#f8cecc;strokeColor=#b85450;" edge="1" parent="-u59lbDl4Qi8jjfzpeMI-196" source="-u59lbDl4Qi8jjfzpeMI-197" target="-u59lbDl4Qi8jjfzpeMI-198">
          <mxGeometry relative="1" as="geometry" />
        </mxCell>
        <mxCell id="-u59lbDl4Qi8jjfzpeMI-197" value="нужное видео" style="rounded=0;whiteSpace=wrap;html=1;fillColor=#f0a30a;fontColor=#000000;strokeColor=#BD7000;" vertex="1" parent="-u59lbDl4Qi8jjfzpeMI-196">
          <mxGeometry x="200" y="275" width="120" height="60" as="geometry" />
        </mxCell>
        <mxCell id="-u59lbDl4Qi8jjfzpeMI-198" value="FastApi сервис, отправляющий видео реквестом" style="rounded=0;whiteSpace=wrap;html=1;fillColor=#b0e3e6;strokeColor=#0e8088;" vertex="1" parent="-u59lbDl4Qi8jjfzpeMI-196">
          <mxGeometry x="20" y="275" width="120" height="60" as="geometry" />
        </mxCell>
        <mxCell id="-u59lbDl4Qi8jjfzpeMI-201" style="edgeStyle=orthogonalEdgeStyle;rounded=0;orthogonalLoop=1;jettySize=auto;html=1;fillColor=#f8cecc;strokeColor=#b85450;strokeWidth=3;" edge="1" parent="-u59lbDl4Qi8jjfzpeMI-154" source="-u59lbDl4Qi8jjfzpeMI-199">
          <mxGeometry relative="1" as="geometry">
            <mxPoint x="1330" y="335" as="targetPoint" />
            <Array as="points">
              <mxPoint x="1120" y="115" />
              <mxPoint x="1120" y="335" />
              <mxPoint x="1330" y="335" />
            </Array>
          </mxGeometry>
        </mxCell>
        <mxCell id="-u59lbDl4Qi8jjfzpeMI-199" value="бд с местоположениями видео" style="rounded=0;whiteSpace=wrap;html=1;" vertex="1" parent="-u59lbDl4Qi8jjfzpeMI-154">
          <mxGeometry x="790" y="85" width="120" height="60" as="geometry" />
        </mxCell>
        <mxCell id="-u59lbDl4Qi8jjfzpeMI-204" style="edgeStyle=orthogonalEdgeStyle;rounded=0;orthogonalLoop=1;jettySize=auto;html=1;exitX=0;exitY=0.5;exitDx=0;exitDy=0;entryX=1;entryY=0.5;entryDx=0;entryDy=0;fillColor=#f8cecc;strokeColor=#b85450;strokeWidth=3;" edge="1" parent="-u59lbDl4Qi8jjfzpeMI-154" source="-u59lbDl4Qi8jjfzpeMI-198" target="-u59lbDl4Qi8jjfzpeMI-162">
          <mxGeometry relative="1" as="geometry" />
        </mxCell>
        <mxCell id="-u59lbDl4Qi8jjfzpeMI-205" style="edgeStyle=orthogonalEdgeStyle;rounded=0;orthogonalLoop=1;jettySize=auto;html=1;exitX=1;exitY=0.75;exitDx=0;exitDy=0;entryX=0.859;entryY=0.009;entryDx=0;entryDy=0;entryPerimeter=0;fillColor=#f8cecc;strokeColor=#b85450;strokeWidth=3;" edge="1" parent="-u59lbDl4Qi8jjfzpeMI-154" source="-u59lbDl4Qi8jjfzpeMI-162" target="-u59lbDl4Qi8jjfzpeMI-174">
          <mxGeometry relative="1" as="geometry" />
        </mxCell>
        <mxCell id="-u59lbDl4Qi8jjfzpeMI-206" style="edgeStyle=orthogonalEdgeStyle;rounded=0;orthogonalLoop=1;jettySize=auto;html=1;exitX=0.25;exitY=0;exitDx=0;exitDy=0;entryX=0.352;entryY=0.986;entryDx=0;entryDy=0;entryPerimeter=0;fillColor=#f8cecc;strokeColor=#b85450;strokeWidth=3;" edge="1" parent="-u59lbDl4Qi8jjfzpeMI-154" source="-u59lbDl4Qi8jjfzpeMI-174" target="-u59lbDl4Qi8jjfzpeMI-159">
          <mxGeometry relative="1" as="geometry" />
        </mxCell>
        <mxCell id="-u59lbDl4Qi8jjfzpeMI-207" value="&lt;font style=&quot;font-size: 38px;&quot;&gt;финальный вариант&lt;/font&gt;" style="shape=curlyBracket;whiteSpace=wrap;html=1;rounded=1;labelPosition=left;verticalLabelPosition=middle;align=right;verticalAlign=middle;strokeWidth=7;" vertex="1" parent="1">
          <mxGeometry x="-250" y="730" width="70" height="2360" as="geometry" />
        </mxCell>
        <mxCell id="-u59lbDl4Qi8jjfzpeMI-208" value="&lt;font style=&quot;font-size: 38px;&quot;&gt;прототип&lt;/font&gt;" style="shape=curlyBracket;whiteSpace=wrap;html=1;rounded=1;labelPosition=left;verticalLabelPosition=middle;align=right;verticalAlign=middle;strokeWidth=7;" vertex="1" parent="1">
          <mxGeometry x="-250" y="-175" width="70" height="725" as="geometry" />
        </mxCell>
      </root>
    </mxGraphModel>
  </diagram>
</mxfile>
